HIERARCHY
ROOT Hips
{
	OFFSET 0.000000 0.000000 0.000000
	CHANNELS 6 Xposition Yposition Zposition Yrotation Xrotation Zrotation
	JOINT Chest
	{
		OFFSET 0.000000 -0.009281 11.569106
		CHANNELS 3 Yrotation Xrotation Zrotation
		JOINT Chest2
		{
			OFFSET -0.000000 0.016865 9.269641
			CHANNELS 3 Yrotation Xrotation Zrotation
			JOINT Chest3
			{
				OFFSET -0.000000 0.000001 8.374491
				CHANNELS 3 Yrotation Xrotation Zrotation
				JOINT Chest4
				{
					OFFSET -0.000000 0.000001 8.374493
					CHANNELS 3 Yrotation Xrotation Zrotation
					JOINT Neck
					{
						OFFSET -0.000000 0.000002 12.152554
						CHANNELS 3 Yrotation Xrotation Zrotation
						JOINT Head
						{
							OFFSET -0.000000 0.040101 7.802319
							CHANNELS 3 Yrotation Xrotation Zrotation
							End Site
							{
								OFFSET -0.000000 0.020947 14.853096
							}
						}
					}
					JOINT RightCollar
					{
						OFFSET 2.894404 0.000001 6.791374
						CHANNELS 3 Yrotation Xrotation Zrotation
						JOINT RightShoulder
						{
							OFFSET 13.574684 0.000001 0.000000
							CHANNELS 3 Yrotation Xrotation Zrotation
							JOINT RightElbow
							{
								OFFSET 23.923903 0.000002 0.000000
								CHANNELS 3 Yrotation Xrotation Zrotation
								JOINT RightWrist
								{
									OFFSET 19.846718 0.012767 0.000000
									CHANNELS 3 Yrotation Xrotation Zrotation
									End Site
									{
										OFFSET 14.973145 0.000001 0.000000
									}
								}
							}
						}
					}
					JOINT LeftCollar
					{
						OFFSET -2.894404 0.000001 6.791374
						CHANNELS 3 Yrotation Xrotation Zrotation
						JOINT LeftShoulder
						{
							OFFSET -13.574684 -0.000001 0.000000
							CHANNELS 3 Yrotation Xrotation Zrotation
							JOINT LeftElbow
							{
								OFFSET -23.923903 -0.000002 0.000000
								CHANNELS 3 Yrotation Xrotation Zrotation
								JOINT LeftWrist
								{
									OFFSET -19.846718 0.012763 0.000000
									CHANNELS 3 Yrotation Xrotation Zrotation
									End Site
									{
										OFFSET -14.973145 -0.000001 0.000000
									}
								}
							}
						}
					}
				}
			}
		}
	}
	JOINT RightHip
	{
		OFFSET 9.469263 0.004643 0.045487
		CHANNELS 3 Yrotation Xrotation Zrotation
		JOINT RightKnee
		{
			OFFSET 0.000000 0.002661 -40.478676
			CHANNELS 3 Yrotation Xrotation Zrotation
			JOINT RightAnkle
			{
				OFFSET 0.000000 0.049106 -35.224068
				CHANNELS 3 Yrotation Xrotation Zrotation
				JOINT RightToe
				{
					OFFSET -0.000001 12.539529 -6.151390
					CHANNELS 3 Yrotation Xrotation Zrotation
					End Site
					{
						OFFSET -0.000001 5.044994 -1.291870
					}
				}
			}
		}
	}
	JOINT LeftHip
	{
		OFFSET -9.469263 0.004641 0.045487
		CHANNELS 3 Yrotation Xrotation Zrotation
		JOINT LeftKnee
		{
			OFFSET 0.000000 0.002661 -40.478676
			CHANNELS 3 Yrotation Xrotation Zrotation
			JOINT LeftAnkle
			{
				OFFSET 0.000000 0.049106 -35.224068
				CHANNELS 3 Yrotation Xrotation Zrotation
				JOINT LeftToe
				{
					OFFSET -0.000001 12.539529 -6.151390
					CHANNELS 3 Yrotation Xrotation Zrotation
					End Site
					{
						OFFSET -0.000001 5.044994 -1.291870
					}
				}
			}
		}
	}
}
MOTION
Frames: 15
Frame Time: 0.016667
12.443851 17.571890 81.500336 -1.032507 3.032851 -102.950861 -2.908955 -0.771967 -0.059232 -1.271353 -0.342289 -0.038280 -1.271353 -0.342289 -0.038280 -0.953534 -0.256640 -0.029424 3.084813 -18.015469 -7.063784 3.323349 2.711263 -11.971942 8.900706 0.021419 -2.396497 49.257186 -17.300885 -8.802912 20.141224 -35.171916 38.420115 -24.901582 38.031152 68.429917 -7.498628 3.006128 -4.340726 -43.268319 -5.462866 12.145824 -35.420050 -55.297632 -19.469902 12.535457 10.977491 -54.331576 -3.766620 -3.520934 -21.014250 11.409635 -38.631874 -11.158879 7.336881 -5.580603 17.838176 -20.477028 25.536672 -6.595504 -13.244565 3.164040 -8.844982 -4.051594 -9.079069 13.006717 11.165409 3.860341 13.330949 -0.255164 -0.185242 -0.000961 
12.120506 17.688158 81.510078 -1.053820 2.997709 -102.917509 -2.855694 -0.767700 -0.053464 -1.248779 -0.340386 -0.040756 -1.248779 -0.340386 -0.040757 -0.936603 -0.255208 -0.031263 3.080360 -18.036547 -7.085082 3.309654 2.671108 -12.012135 8.903025 0.008489 -2.397329 49.197009 -17.326327 -8.799686 20.062491 -35.157603 38.535333 -24.877320 38.048361 68.441364 -7.530039 3.023603 -4.344764 -43.350299 -5.451436 12.235188 -35.250562 -55.276963 -19.552649 12.539860 10.932774 -54.324186 -3.614219 -3.644313 -20.811407 11.110029 -38.001639 -10.788184 7.060040 -5.580646 17.945019 -21.281889 26.805429 -6.944094 -13.236427 3.348252 -8.673451 -4.051574 -8.979727 12.987375 11.272553 3.549338 13.181175 -0.234745 -0.129169 0.003064 
11.792520 17.807821 81.529984 -1.091555 2.931459 -102.868434 -2.790991 -0.785453 -0.040533 -1.223371 -0.348155 -0.038035 -1.223371 -0.348155 -0.038035 -0.917546 -0.261041 -0.029223 3.077810 -18.049004 -7.109850 3.297700 2.646925 -12.058274 8.907535 0.010772 -2.406196 49.113309 -17.334873 -8.781561 19.997301 -35.185091 38.644309 -24.850359 38.065816 68.463678 -7.555039 3.048703 -4.359012 -43.421469 -5.396343 12.328269 -35.106783 -55.268917 -19.605542 12.524199 10.885401 -54.309088 -3.442876 -3.807911 -20.636723 10.846751 -37.295982 -10.316718 6.844599 -5.556220 17.870259 -21.918733 27.944860 -7.206628 -13.172888 3.484802 -8.396977 -4.050618 -8.833858 12.877742 11.349291 3.201566 12.889154 -0.196812 -0.070147 0.002398 
11.462402 17.905949 81.561249 -1.152394 2.832412 -102.821859 -2.708944 -0.849883 0.007336 -1.195579 -0.364715 -0.029456 -1.195579 -0.364715 -0.029456 -0.896699 -0.273479 -0.022806 3.081202 -18.046905 -7.141649 3.293311 2.649881 -12.115711 8.908692 0.000948 -2.427156 49.017580 -17.320277 -8.721955 19.938417 -35.228938 38.754292 -24.822979 38.094533 68.490309 -7.576078 3.067263 -4.407519 -43.491906 -5.286749 12.403676 -35.010696 -55.236245 -19.614946 12.528779 10.796236 -54.301609 -3.231001 -4.021991 -20.532216 10.569617 -36.561159 -9.813174 6.737529 -5.407532 17.667512 -22.372590 28.881971 -7.369620 -13.093064 3.575235 -8.015510 -4.025722 -8.661048 12.712894 11.383714 2.829890 12.735197 -0.134388 -0.004087 0.010351 
11.112445 18.035404 81.606422 -1.175363 2.749500 -102.731093 -2.631989 -0.889257 0.026693 -1.161892 -0.381503 -0.022619 -1.161891 -0.381503 -0.022619 -0.871430 -0.286085 -0.017691 3.077497 -18.040555 -7.166725 3.277786 2.660442 -12.163265 8.894173 -0.032859 -2.425149 48.901634 -17.336559 -8.636775 19.900755 -35.256385 38.879281 -24.802083 38.131573 68.516428 -7.620353 3.103730 -4.430195 -43.589178 -5.214393 12.485373 -34.842065 -55.145506 -19.680109 12.527256 10.677161 -54.318189 -3.044383 -4.208792 -20.579336 10.289292 -35.835301 -9.411510 6.442018 -5.183108 17.806949 -22.615132 29.601060 -7.413778 -13.025376 3.714836 -7.676084 -3.974174 -8.465190 12.515419 11.400655 2.333549 12.414307 -0.091863 0.105067 -0.001796 
10.769725 18.172213 81.688194 -1.213971 2.610755 -102.582570 -2.506591 -0.976057 0.009013 -1.124986 -0.395796 -0.013975 -1.124986 -0.395795 -0.013973 -0.843744 -0.296822 -0.011209 3.069080 -18.031474 -7.185879 3.255361 2.675919 -12.201558 8.872937 -0.052715 -2.429529 48.766345 -17.422950 -8.550790 19.880632 -35.260517 39.024399 -24.788346 38.178148 68.547854 -7.688018 3.157954 -4.489987 -43.719348 -5.139843 12.637275 -34.525677 -55.006215 -19.856897 12.523516 10.545114 -54.359109 -2.807065 -4.402421 -20.803931 9.976713 -35.133387 -9.050112 6.363797 -4.839416 18.007826 -22.845425 30.038957 -7.512330 -12.945198 3.848335 -7.476912 -3.918818 -8.273602 12.356633 11.398210 1.674071 12.252745 -0.050694 0.305988 -0.003513 
10.384830 18.362244 81.784897 -1.210511 2.516057 -102.425920 -2.427680 -1.031189 0.004791 -1.088919 -0.402605 -0.000750 -1.088919 -0.402605 -0.000751 -0.816686 -0.301953 -0.001282 3.058849 -18.024137 -7.192538 3.233844 2.688486 -12.217426 8.868630 -0.068246 -2.446268 48.600300 -17.560836 -8.463614 19.876539 -35.247277 39.178013 -24.777522 38.226735 68.588937 -7.740810 3.147440 -4.541477 -43.875738 -4.963572 12.790276 -34.146049 -54.862429 -20.065298 12.512719 10.391268 -54.448270 -2.644154 -4.518388 -21.046743 9.651345 -34.400347 -8.673644 6.303237 -4.564918 18.340591 -22.987278 29.996555 -7.632566 -12.908144 4.095025 -7.361641 -3.859637 -8.117836 12.283904 11.367590 0.837535 11.972768 -0.024427 0.597591 -0.010515 
9.954299 18.589354 81.912270 -1.138637 2.434403 -102.292424 -2.354343 -1.026303 0.041373 -1.057123 -0.405359 0.013518 -1.057123 -0.405358 0.013518 -0.792830 -0.304043 0.009437 3.046221 -18.020445 -7.175217 3.216087 2.695050 -12.189868 8.866239 -0.080813 -2.477659 48.410089 -17.812846 -8.370458 19.893271 -35.150718 39.364511 -24.766339 38.276933 68.645013 -7.846745 3.177496 -4.548240 -44.024650 -4.691894 13.016111 -33.714859 -54.791774 -20.247331 12.472139 10.256717 -54.629144 -2.454671 -4.542794 -21.163587 9.319620 -33.558372 -8.297947 6.072178 -4.393947 18.787422 -22.995912 29.799231 -7.669351 -12.874551 4.497643 -7.236994 -3.827781 -8.013702 12.277678 11.330550 -0.196745 11.533384 0.002359 0.988301 0.002287 
9.458969 18.836058 82.075157 -0.982972 2.321860 -102.188878 -2.239580 -0.966669 0.140805 -1.034699 -0.410102 0.032142 -1.034699 -0.410102 0.032143 -0.776000 -0.307632 0.023412 3.050184 -18.008439 -7.146146 3.232075 2.718701 -12.135326 8.868487 -0.105425 -2.532562 48.299427 -18.129347 -8.302293 19.876807 -34.958233 39.576595 -24.738254 38.337428 68.700775 -7.973027 3.237013 -4.535025 -44.165622 -4.294312 13.294866 -33.248821 -54.825102 -20.402549 12.402139 10.180860 -54.876496 -2.215823 -4.474475 -21.071805 9.097664 -32.575805 -7.979421 5.892536 -4.268511 18.811441 -22.811409 29.596043 -7.558715 -12.765910 5.056090 -7.075772 -3.816666 -7.934603 12.329642 11.271747 -1.438726 10.959170 0.025728 1.438686 -0.001644 
8.915684 19.097498 82.267189 -0.824488 2.259583 -102.063175 -2.169448 -0.930708 0.262532 -1.022279 -0.422015 0.049997 -1.022279 -0.422015 0.049999 -0.766672 -0.316596 0.036792 3.077055 -17.979225 -7.117832 3.288661 2.775858 -12.074914 8.868465 -0.183569 -2.571343 48.275589 -18.357390 -8.282186 19.852044 -34.751610 39.808091 -24.719506 38.395789 68.736975 -8.080214 3.245775 -4.519992 -44.323737 -3.791032 13.565888 -32.752410 -54.849578 -20.591016 12.312960 10.093046 -55.149833 -1.977114 -4.421647 -20.866359 9.008803 -31.401060 -7.746713 5.576829 -4.325475 18.647837 -22.537340 29.481525 -7.339735 -12.685487 5.697796 -6.904558 -3.844819 -7.872407 12.419877 11.181429 -2.945444 10.345408 0.184583 3.199695 0.010008 
8.327746 19.358782 82.488678 -0.593655 2.140052 -101.909776 -2.028992 -0.878807 0.412206 -1.014879 -0.435481 0.062462 -1.014879 -0.435481 0.062462 -0.761111 -0.326715 0.046123 3.123076 -17.940436 -7.103264 3.375253 2.851616 -12.033572 8.873996 -0.303795 -2.578954 48.246127 -18.424275 -8.273763 19.916736 -34.588829 39.996556 -24.726301 38.422850 68.734796 -8.145019 3.231370 -4.465956 -44.495421 -3.367522 13.822552 -32.220929 -54.782509 -20.912757 12.247430 9.923529 -55.376623 -1.649910 -4.324946 -20.646169 8.965075 -30.029719 -7.424805 5.298981 -4.601156 18.295375 -22.325561 29.473151 -7.130135 -12.520836 6.443974 -6.704955 -3.884473 -7.785744 12.532210 11.096200 -4.697443 9.680985 0.334231 5.007644 -0.027914 
7.710779 19.602453 82.738045 -0.243994 1.921179 -101.718708 -1.779233 -0.784488 0.587536 -1.004538 -0.440682 0.069162 -1.004538 -0.440681 0.069164 -0.753350 -0.330626 0.051147 3.176560 -17.905840 -7.113411 3.467715 2.919218 -12.035084 8.871505 -0.391205 -2.610131 48.231401 -18.358488 -8.298756 20.010352 -34.521118 40.144471 -24.727013 38.392394 68.713677 -8.163033 3.176172 -4.414952 -44.651580 -2.999414 14.077626 -31.623233 -54.715153 -21.402319 12.242000 9.724694 -55.476637 -1.151817 -4.163883 -20.440675 8.957335 -28.466499 -6.921418 4.624118 -4.984921 17.794876 -21.793418 29.425404 -6.858245 -12.234370 7.329120 -6.487007 -3.938409 -7.702946 12.768537 11.057870 -6.615422 8.943854 0.460688 6.865281 -0.122068 
7.113658 19.874781 83.012169 0.034805 1.821315 -101.383592 -1.670903 -0.772103 0.675960 -0.987413 -0.439028 0.067111 -0.987413 -0.439028 0.067112 -0.740508 -0.329380 0.049625 3.225734 -17.887485 -7.145372 3.546190 2.955618 -12.077814 8.873572 -0.407486 -2.635004 48.220961 -18.234882 -8.400122 20.067960 -34.553582 40.299544 -24.721728 38.334119 68.702571 -8.195446 3.203805 -4.372538 -44.714947 -2.677392 14.385963 -31.115405 -54.739069 -21.865322 12.267225 9.514132 -55.430486 -0.665661 -4.088076 -20.298824 8.905408 -26.735756 -6.303121 3.741135 -5.458092 16.872714 -20.913165 29.522075 -6.459780 -12.078966 8.157546 -6.240405 -4.018928 -7.555364 13.079174 11.059394 -8.903478 7.915617 0.623688 8.993021 -0.150285 
6.513827 20.140564 83.306419 0.358397 1.705097 -101.042028 -1.553512 -0.724095 0.803018 -0.961991 -0.438158 0.058006 -0.961991 -0.438158 0.058007 -0.721448 -0.328711 0.042815 3.269208 -17.885404 -7.193281 3.610053 2.960925 -12.151454 8.873058 -0.391674 -2.625216 48.200406 -18.096450 -8.539021 20.088286 -34.650004 40.479000 -24.712806 38.276609 68.694969 -8.218417 3.261411 -4.302338 -44.709384 -2.351772 14.659669 -30.869371 -54.864823 -22.105193 12.317947 9.311683 -55.304752 -0.025850 -4.073814 -20.218272 8.863167 -24.750577 -5.970527 2.565045 -6.075994 16.205336 -19.834598 29.611715 -5.987781 -11.920687 9.047345 -5.798558 -4.054813 -7.391171 13.340556 11.103243 -11.418297 6.848919 0.802698 11.264304 -0.163766 
5.768420 20.400434 83.602051 0.804975 1.510660 -100.966035 -1.358037 -0.553137 1.224941 -0.929279 -0.447920 0.049730 -0.929279 -0.447920 0.049729 -0.696919 -0.336017 0.036617 3.313621 -17.889129 -7.253845 3.671854 2.955111 -12.247972 8.845032 -0.405180 -2.600448 48.161621 -17.961850 -8.639953 20.110310 -34.784869 40.679189 -24.715914 38.227001 68.677306 -8.203272 3.291999 -4.203986 -44.703653 -2.049660 14.842407 -30.902870 -54.992800 -22.105229 12.365280 9.146933 -55.155328 0.657741 -3.980638 -19.777926 8.893685 -22.692656 -6.534817 1.404334 -6.820726 15.948248 -18.607122 29.719355 -5.568906 -11.623285 10.162773 -5.019284 -4.055341 -7.184273 13.547875 11.190024 -14.098505 5.835066 1.000629 13.522860 -0.219327 
